<svg width="100" height="100" class="hidden">
  <symbol xmlns="http://www.w3.org/2000/svg" viewBox="0 0 48 48" id="shield">
    <path d="M24 43.95q-7-1.75-11.5-8.125T8 21.85V9.95l16-6 16 6v11.9q0 7.6-4.5 13.975T24 43.95Z"></path>
  </symbol>
  <symbol xmlns="http://www.w3.org/2000/svg" viewBox="0 0 18 16" id="twitter">
    <path d="M17.9728 2.7174C17.5084 3.33692 16.947 3.87733 16.3103 4.31776C16.3103 4.47959 16.3103 4.64142 16.3103 4.81225C16.3154 7.7511 15.1415 10.5691 13.0518 12.6345C10.962 14.6999 8.1312 15.8399 5.19405 15.7989C3.49599 15.8046 1.81967 15.4169 0.296422 14.6661C0.214282 14.6302 0.161312 14.549 0.161622 14.4593V14.3604C0.161622 14.2313 0.266232 14.1267 0.395272 14.1267C2.06442 14.0716 3.67402 13.4929 4.99634 12.4724C3.48553 12.4419 2.12619 11.5469 1.5006 10.1707C1.46901 10.0956 1.47884 10.0093 1.52657 9.9432C1.57429 9.8771 1.653 9.8407 1.73425 9.8471C2.19342 9.8932 2.65718 9.8505 3.1002 9.7212C1.43239 9.375 0.179212 7.9904 -0.000137933 6.2957C-0.00650793 6.2144 0.029922 6.1357 0.096002 6.0879C0.162072 6.0402 0.248242 6.0303 0.323382 6.062C0.770942 6.2595 1.25409 6.3635 1.74324 6.3676C0.281842 5.40846 -0.349388 3.58405 0.206552 1.92622C0.263942 1.76513 0.401812 1.64612 0.569502 1.61294C0.737182 1.57975 0.909962 1.63728 1.02432 1.76439C2.99639 3.86325 5.70604 5.11396 8.5819 5.25279C8.5083 4.95885 8.4721 4.65676 8.4741 4.35372C8.501 2.76472 9.4842 1.34921 10.9634 0.769872C12.4425 0.190542 14.1249 0.562032 15.223 1.71044C15.9714 1.56785 16.695 1.31645 17.3707 0.964212C17.4202 0.933312 17.483 0.933312 17.5325 0.964212C17.5634 1.01373 17.5634 1.07652 17.5325 1.12604C17.2052 1.87552 16.6523 2.50412 15.9509 2.92419C16.5651 2.85296 17.1685 2.70807 17.7482 2.49264C17.797 2.45942 17.8611 2.45942 17.9099 2.49264C17.9508 2.51134 17.9814 2.54711 17.9935 2.59042C18.0056 2.63373 17.998 2.68018 17.9728 2.7174Z"></path>
  </symbol>
  <symbol xmlns="http://www.w3.org/2000/svg" viewBox="0 0 48 48" id="school">
    <path d="M43 33.85v-14.1L23.95 30 2 18 23.95 6 46 18v15.85ZM23.95 42l-14.5-7.95v-10.5l14.5 7.95 14.5-7.95v10.5Z"></path>
  </symbol>
  <symbol xmlns="http://www.w3.org/2000/svg" viewBox="0 0 18 18" id="instagram">
    <path fill-rule="evenodd" clip-rule="evenodd" d="M13 0H5C2.23858 0 0 2.23858 0 5V13C0 15.7614 2.23858 18 5 18H13C15.7614 18 18 15.7614 18 13V5C18 2.23858 15.7614 0 13 0ZM16.25 13C16.2445 14.7926 14.7926 16.2445 13 16.25H5C3.20735 16.2445 1.75549 14.7926 1.75 13V5C1.75549 3.20735 3.20735 1.75549 5 1.75H13C14.7926 1.75549 16.2445 3.20735 16.25 5V13ZM13.75 5.25C14.3023 5.25 14.75 4.80228 14.75 4.25C14.75 3.69772 14.3023 3.25 13.75 3.25C13.1977 3.25 12.75 3.69772 12.75 4.25C12.75 4.80228 13.1977 5.25 13.75 5.25ZM9 4.5C6.51472 4.5 4.5 6.51472 4.5 9C4.5 11.4853 6.51472 13.5 9 13.5C11.4853 13.5 13.5 11.4853 13.5 9C13.5027 7.8057 13.0294 6.65957 12.1849 5.81508C11.3404 4.97059 10.1943 4.49734 9 4.5ZM6.25 9C6.25 10.5188 7.4812 11.75 9 11.75C10.5188 11.75 11.75 10.5188 11.75 9C11.75 7.4812 10.5188 6.25 9 6.25C7.4812 6.25 6.25 7.4812 6.25 9Z"></path>
  </symbol>
  <symbol xmlns="http://www.w3.org/2000/svg" viewBox="0 0 48 48" id="emoji">
    <path d="M31.3 21.35q1.15 0 1.925-.8.775-.8.775-1.9 0-1.15-.775-1.925-.775-.775-1.925-.775-1.1 0-1.9.775-.8.775-.8 1.925 0 1.1.8 1.9.8.8 1.9.8Zm-14.6 0q1.15 0 1.925-.8.775-.8.775-1.9 0-1.15-.775-1.925-.775-.775-1.925-.775-1.1 0-1.9.775-.8.775-.8 1.925 0 1.1.8 1.9.8.8 1.9.8Zm7.3 13.6q3.3 0 6.075-1.775Q32.85 31.4 34.1 28.35H13.9q1.3 3.05 4.05 4.825Q20.7 34.95 24 34.95ZM24 44q-4.15 0-7.8-1.575-3.65-1.575-6.35-4.275-2.7-2.7-4.275-6.35Q4 28.15 4 24t1.575-7.8Q7.15 12.55 9.85 9.85q2.7-2.7 6.35-4.275Q19.85 4 24 4t7.8 1.575q3.65 1.575 6.35 4.275 2.7 2.7 4.275 6.35Q44 19.85 44 24t-1.575 7.8q-1.575 3.65-4.275 6.35-2.7 2.7-6.35 4.275Q28.15 44 24 44Z"></path>
  </symbol>
  <symbol xmlns="http://www.w3.org/2000/svg" viewBox="0 0 15 15" id="search">
    <path d="M3.00977 8.05664C3.70247 8.74935 4.54362 9.0957 5.5332 9.0957C6.52279 9.0957 7.36393 8.74935 8.05664 8.05664C8.74935 7.36393 9.0957 6.52279 9.0957 5.5332C9.0957 4.54362 8.74935 3.70247 8.05664 3.00977C7.36393 2.31706 6.52279 1.9707 5.5332 1.9707C4.54362 1.9707 3.70247 2.31706 3.00977 3.00977C2.31706 3.70247 1.9707 4.54362 1.9707 5.5332C1.9707 6.52279 2.31706 7.36393 3.00977 8.05664ZM10.2832 9.0957L14.2168 13.0293L13.0293 14.2168L9.0957 10.2832V9.65234L8.87305 9.42969C7.93294 10.2461 6.81966 10.6543 5.5332 10.6543C4.09831 10.6543 2.8737 10.1595 1.85938 9.16992C0.869792 8.18034 0.375 6.9681 0.375 5.5332C0.375 4.09831 0.869792 2.88607 1.85938 1.89648C2.8737 0.882161 4.09831 0.375 5.5332 0.375C6.9681 0.375 8.18034 0.882161 9.16992 1.89648C10.1595 2.88607 10.6543 4.09831 10.6543 5.5332C10.6543 6.05273 10.5306 6.64648 10.2832 7.31445C10.0358 7.95768 9.7513 8.47721 9.42969 8.87305L9.65234 9.0957H10.2832Z"></path>
  </symbol>
  <symbol xmlns="http://www.w3.org/2000/svg" viewBox="0 0 10 18" id="facebook">
    <path d="M9.5 3H6.5C5.9477 3 5.5 3.44772 5.5 4V7H9.5C9.6137 6.99748 9.7216 7.0504 9.7892 7.1419C9.8568 7.2334 9.8758 7.352 9.84 7.46L9.1 9.66C9.0318 9.8619 8.8431 9.9984 8.63 10H5.5V17.5C5.5 17.7761 5.2761 18 5 18H2.5C2.22386 18 2 17.7761 2 17.5V10H0.5C0.22386 10 0 9.7761 0 9.5V7.5C0 7.2239 0.22386 7 0.5 7H2V4C2 1.79086 3.7909 0 6 0H9.5C9.7761 0 10 0.22386 10 0.5V2.5C10 2.77614 9.7761 3 9.5 3Z"></path>
  </symbol>
  <symbol xmlns="http://www.w3.org/2000/svg" viewBox="0 0 48 48" id="cart">
    <path d="M14.35 43.95q-1.5 0-2.55-1.05-1.05-1.05-1.05-2.55 0-1.5 1.05-2.55 1.05-1.05 2.55-1.05 1.5 0 2.55 1.05 1.05 1.05 1.05 2.55 0 1.5-1.05 2.55-1.05 1.05-2.55 1.05Zm20 0q-1.5 0-2.55-1.05-1.05-1.05-1.05-2.55 0-1.5 1.05-2.55 1.05-1.05 2.55-1.05 1.5 0 2.55 1.05 1.05 1.05 1.05 2.55 0 1.5-1.05 2.55-1.05 1.05-2.55 1.05Zm-24.1-36H39.7q1.15 0 1.75 1.05.6 1.05 0 2.1L34.7 23.25q-.55.95-1.425 1.525t-1.925.575H16.2l-2.8 5.2h24.55v3h-24.1q-2.1 0-3.025-1.4-.925-1.4.025-3.15l3.2-5.9L6.45 7h-3.9V4H8.4Z"></path>
  </symbol>
  <symbol xmlns="http://www.w3.org/2000/svg" viewBox="0 0 48 48" id="person">
    <path d="M24 23.95q-3.3 0-5.4-2.1-2.1-2.1-2.1-5.4 0-3.3 2.1-5.4 2.1-2.1 5.4-2.1 3.3 0 5.4 2.1 2.1 2.1 2.1 5.4 0 3.3-2.1 5.4-2.1 2.1-5.4 2.1ZM8 40v-4.7q0-1.9.95-3.25T11.4 30q3.35-1.5 6.425-2.25Q20.9 27 24 27q3.1 0 6.15.775 3.05.775 6.4 2.225 1.55.7 2.5 2.05.95 1.35.95 3.25V40Z"></path>
  </symbol>
    <symbol xmlns="http://www.w3.org/2000/svg" viewBox="0 0 20 20" id="close">
    <path d="M19.3125 2.5625L11.875 10L19.3125 17.4375L17.4375 19.3125L10 11.875L2.5625 19.3125L0.6875 17.4375L8.125 10L0.6875 2.5625L2.5625 0.6875L10 8.125L17.4375 0.6875L19.3125 2.5625Z" ></path>
  </symbol>
    <symbol xmlns="http://www.w3.org/2000/svg" viewBox="0 0 48 48" id="burger">
    <path d="M6 36v-3h36v3Zm0-10.5v-3h36v3ZM6 15v-3h36v3Z"></path>
  </symbol>
    <symbol xmlns="http://www.w3.org/2000/svg" viewBox="0 0 48 48" id="play">
    <path d="M19.15 32.5 32.5 24l-13.35-8.5ZM24 44q-4.1 0-7.75-1.575-3.65-1.575-6.375-4.3-2.725-2.725-4.3-6.375Q4 28.1 4 24q0-4.15 1.575-7.8 1.575-3.65 4.3-6.35 2.725-2.7 6.375-4.275Q19.9 4 24 4q4.15 0 7.8 1.575 3.65 1.575 6.35 4.275 2.7 2.7 4.275 6.35Q44 19.85 44 24q0 4.1-1.575 7.75-1.575 3.65-4.275 6.375t-6.35 4.3Q28.15 44 24 44Z"></path>
  </symbol>
    <symbol xmlns="http://www.w3.org/2000/svg" viewBox="0 0 8 12" id="arrow_right">
    <path d="M1.98438 0L7.98438 6L1.98438 12L0.578125 10.5938L5.17188 6L0.578125 1.40625L1.98438 0Z"></path>
  </symbol>
</svg>